<?xml version="1.0" encoding="UTF-8" standalone="no"?>
<svg
   viewBox="0 0 199 199"
   aria-hidden="true"
   focusable="false"
   version="1.1"
   id="svg1"
   sodipodi:docname="logo.svg"
   width="199"
   height="199"
   inkscape:export-filename="../../../../../home/hugo/logo-small.svg"
   inkscape:export-xdpi="96"
   inkscape:export-ydpi="96"
   xmlns:inkscape="http://www.inkscape.org/namespaces/inkscape"
   xmlns:sodipodi="http://sodipodi.sourceforge.net/DTD/sodipodi-0.dtd"
   xmlns="http://www.w3.org/2000/svg"
   xmlns:svg="http://www.w3.org/2000/svg">
  <defs
     id="defs1" />
  <sodipodi:namedview
     id="namedview1"
     pagecolor="#ffffff"
     bordercolor="#000000"
     borderopacity="0.25"
     inkscape:showpageshadow="2"
     inkscape:pageopacity="0.0"
     inkscape:pagecheckerboard="0"
     inkscape:deskcolor="#d1d1d1" />
  <g
     fill-rule="evenodd"
     id="g1">
    <path
       d="m 170.6,106.6 v 7.1 h 24.8 c 2,0 3.6,1.7 3.6,3.6 v 21.3 c 0,1.9 -1.7,3.5 -3.6,3.5 h -24.8 v 28.5 H 142 v 24.8 c 0,2 -1.6,3.6 -3.5,3.6 h -21.3 c -1.98823,0 -3.6,-1.61177 -3.6,-3.6 v -24.8 h -7 v -24.9 c 0,-1.9 1.6,-3.6 3.5,-3.6 h 32 v -32 c 0,-1.8 1.6,-3.5 3.5,-3.5 h 24.9 z m -117.3,0 c 1.8,0 3.4,1.6 3.6,3.4 v 32.2 h 32 c 1.8,0 3.4,1.5 3.5,3.3 v 25.1 h -7.1 v 24.8 c 0,2 -1.7,3.6 -3.6,3.6 H 60.4 c -1.949066,-0.0542 -3.500752,-1.65018 -3.5,-3.6 V 170.6 H 28.4 V 142 H 3.6 c -1.9498185,7.5e-4 -3.54583852,-1.55093 -3.6,-3.5 v -21.3 c 0,-2 1.7,-3.6 3.6,-3.6 h 24.8 v -7 z m 74.6,-35.5 v 56.8 H 71.1 V 71.1 Z M 81.7,0 c 2,0 3.6,1.7 3.6,3.6 v 24.8 h 7 v 24.9 c 0,1.9 -1.6,3.6 -3.5,3.6 h -32 v 32 c 0,1.8 -1.6,3.5 -3.5,3.5 H 28.4 V 85.3 H 3.6 C 1.6117749,85.3 0,83.688225 0,81.7 V 60.4 C 0,58.5 1.7,57 3.6,57 H 28.4 V 28.4 H 57 V 3.6 C 57,1.6 58.6,0 60.5,0 h 21.3 z m 56.9,0 c 1.9,0 3.5,1.7 3.5,3.6 v 24.8 h 28.5 V 57 h 24.8 c 2,0 3.6,1.6 3.6,3.5 v 21.3 c 0,2 -1.7,3.6 -3.6,3.6 h -24.8 v 7 h -24.9 c -1.85863,-0.03939 -3.39944,-1.451803 -3.6,-3.3 V 56.8 h -32 c -1.82011,-0.08805 -3.30513,-1.48821 -3.5,-3.3 V 28.4 h 7.1 V 3.6 c 0,-2 1.7,-3.6 3.6,-3.6 z"
       id="path1"
       sodipodi:nodetypes="ccsssscccssssccsscssccsccscccsscccccccssccsccccccsccsscssccsssscccssccsscccsssscccccccccsss"
       style="fill:#ffffff" />
  </g>
</svg>
